<svg width="1255" height="1255" viewBox="0 0 1255 1255" fill="none" xmlns="http://www.w3.org/2000/svg">
<path d="M627.34 1235.27C963.184 1235.27 1235.44 963.014 1235.44 627.17C1235.44 291.326 963.184 19.07 627.34 19.07C291.496 19.07 19.24 291.326 19.24 627.17C19.24 963.014 291.496 1235.27 627.34 1235.27Z" stroke="white" stroke-width="37.5984" stroke-miterlimit="10"/>
<path d="M275.02 281.38L277.65 538.63L278.36 607.68C278.36 607.68 275.02 717.93 417.57 714.59C417.57 714.59 581.28 740.2 579.05 607.68V280.27" stroke="white" stroke-width="37.5984" stroke-miterlimit="10" stroke-linecap="round" stroke-linejoin="round"/>
<path d="M577.94 531.95L276.14 533.07" stroke="white" stroke-width="37.5984" stroke-miterlimit="10"/>
<path d="M374.14 281.38L376.37 530.84" stroke="white" stroke-width="37.5984" stroke-miterlimit="10" stroke-linecap="round" stroke-linejoin="round"/>
<path d="M482.16 281.38V528.61" stroke="white" stroke-width="37.5984" stroke-miterlimit="10" stroke-linecap="round" stroke-linejoin="round"/>
<path d="M398.03 715.1V878.29" stroke="white" stroke-width="37.5984" stroke-miterlimit="10" stroke-linecap="round" stroke-linejoin="round"/>
<path d="M452.64 718.28V878.29" stroke="white" stroke-width="37.5984" stroke-miterlimit="10" stroke-linecap="round" stroke-linejoin="round"/>
<path d="M481.84 1216.08L476.13 880.83L382.16 881.46L373.27 1179.88" stroke="white" stroke-width="37.5984" stroke-miterlimit="10" stroke-linecap="round" stroke-linejoin="round"/>
<path d="M829.82 282.16C829.82 282.16 702.05 277.65 682.51 503.12C682.51 503.12 647.94 722.58 816.29 718.07H849.36C849.36 718.07 1002.68 731.6 975.62 500.11C975.62 500.12 954.58 283.66 829.82 282.16Z" stroke="white" stroke-width="37.5984" stroke-miterlimit="10" stroke-linecap="round" stroke-linejoin="round"/>
<path d="M804.26 718.07L805.95 882.49" stroke="white" stroke-width="37.5984" stroke-miterlimit="10" stroke-linecap="round" stroke-linejoin="round"/>
<path d="M849.36 718.07L852.41 882.23" stroke="white" stroke-width="37.5984" stroke-miterlimit="10" stroke-linecap="round" stroke-linejoin="round"/>
<path d="M776.51 1216.91L782.21 883L871.55 882.74L882.9 1179.22" stroke="white" stroke-width="37.5984" stroke-miterlimit="10" stroke-linecap="round" stroke-linejoin="round"/>
</svg>
