<svg width="93" height="33" viewBox="0 0 93 33" fill="none" xmlns="http://www.w3.org/2000/svg">
<path d="M0 0H93V33H0L17.5 17L0 0Z" fill="white"/>
<path d="M34.1094 20H31.9883L29.2988 16.2852C29.0996 16.293 28.9375 16.2969 28.8125 16.2969C28.7617 16.2969 28.707 16.2969 28.6484 16.2969C28.5898 16.293 28.5293 16.2891 28.4668 16.2852V18.5938C28.4668 19.0938 28.5215 19.4043 28.6309 19.5254C28.7793 19.6973 29.002 19.7832 29.2988 19.7832H29.6094V20H26.2051V19.7832H26.5039C26.8398 19.7832 27.0801 19.6738 27.2246 19.4551C27.3066 19.334 27.3477 19.0469 27.3477 18.5938V13.4609C27.3477 12.9609 27.293 12.6504 27.1836 12.5293C27.0312 12.3574 26.8047 12.2715 26.5039 12.2715H26.2051V12.0547H29.0996C29.9434 12.0547 30.5645 12.1172 30.9629 12.2422C31.3652 12.3633 31.7051 12.5898 31.9824 12.9219C32.2637 13.25 32.4043 13.6426 32.4043 14.0996C32.4043 14.5879 32.2441 15.0117 31.9238 15.3711C31.6074 15.7305 31.1152 15.9844 30.4473 16.1328L32.0879 18.4121C32.4629 18.9355 32.7852 19.2832 33.0547 19.4551C33.3242 19.627 33.6758 19.7363 34.1094 19.7832V20ZM28.4668 15.916C28.541 15.916 28.6055 15.918 28.6602 15.9219C28.7148 15.9219 28.7598 15.9219 28.7949 15.9219C29.5527 15.9219 30.123 15.7578 30.5059 15.4297C30.8926 15.1016 31.0859 14.6836 31.0859 14.1758C31.0859 13.6797 30.9297 13.2773 30.6172 12.9688C30.3086 12.6562 29.8984 12.5 29.3867 12.5C29.1602 12.5 28.8535 12.5371 28.4668 12.6113V15.916ZM35.2812 16.6543C35.2773 17.4512 35.4707 18.0762 35.8613 18.5293C36.252 18.9824 36.7109 19.209 37.2383 19.209C37.5898 19.209 37.8945 19.1133 38.1523 18.9219C38.4141 18.7266 38.6328 18.3945 38.8086 17.9258L38.9902 18.043C38.9082 18.5781 38.6699 19.0664 38.2754 19.5078C37.8809 19.9453 37.3867 20.1641 36.793 20.1641C36.1484 20.1641 35.5957 19.9141 35.1348 19.4141C34.6777 18.9102 34.4492 18.2344 34.4492 17.3867C34.4492 16.4688 34.6836 15.7539 35.1523 15.2422C35.625 14.7266 36.2168 14.4688 36.9277 14.4688C37.5293 14.4688 38.0234 14.668 38.4102 15.0664C38.7969 15.4609 38.9902 15.9902 38.9902 16.6543H35.2812ZM35.2812 16.3145H37.7656C37.7461 15.9707 37.7051 15.7285 37.6426 15.5879C37.5449 15.3691 37.3984 15.1973 37.2031 15.0723C37.0117 14.9473 36.8105 14.8848 36.5996 14.8848C36.2754 14.8848 35.9844 15.0117 35.7266 15.2656C35.4727 15.5156 35.3242 15.8652 35.2812 16.3145ZM41.8086 15.0547V18.582C41.8086 19.082 41.8633 19.3984 41.9727 19.5312C42.1172 19.7031 42.3105 19.7891 42.5527 19.7891H43.0391V20H39.834V19.7891H40.0742C40.2305 19.7891 40.373 19.75 40.502 19.6719C40.6309 19.5938 40.7188 19.4883 40.7656 19.3555C40.8164 19.2227 40.8418 18.9648 40.8418 18.582V15.0547H39.7988V14.6328H40.8418V14.2812C40.8418 13.7461 40.9277 13.293 41.0996 12.9219C41.2715 12.5508 41.5332 12.252 41.8848 12.0254C42.2402 11.7949 42.6387 11.6797 43.0801 11.6797C43.4902 11.6797 43.8672 11.8125 44.2109 12.0781C44.4375 12.2539 44.5508 12.4512 44.5508 12.6699C44.5508 12.7871 44.5 12.8984 44.3984 13.0039C44.2969 13.1055 44.1875 13.1562 44.0703 13.1562C43.9805 13.1562 43.8848 13.125 43.7832 13.0625C43.6855 12.9961 43.5645 12.8574 43.4199 12.6465C43.2754 12.4316 43.1426 12.2871 43.0215 12.2129C42.9004 12.1387 42.7656 12.1016 42.6172 12.1016C42.4375 12.1016 42.2852 12.1504 42.1602 12.248C42.0352 12.3418 41.9453 12.4902 41.8906 12.6934C41.8359 12.8926 41.8086 13.4102 41.8086 14.2461V14.6328H43.1914V15.0547H41.8086ZM44.6094 16.6543C44.6055 17.4512 44.7988 18.0762 45.1895 18.5293C45.5801 18.9824 46.0391 19.209 46.5664 19.209C46.918 19.209 47.2227 19.1133 47.4805 18.9219C47.7422 18.7266 47.9609 18.3945 48.1367 17.9258L48.3184 18.043C48.2363 18.5781 47.998 19.0664 47.6035 19.5078C47.209 19.9453 46.7148 20.1641 46.1211 20.1641C45.4766 20.1641 44.9238 19.9141 44.4629 19.4141C44.0059 18.9102 43.7773 18.2344 43.7773 17.3867C43.7773 16.4688 44.0117 15.7539 44.4805 15.2422C44.9531 14.7266 45.5449 14.4688 46.2559 14.4688C46.8574 14.4688 47.3516 14.668 47.7383 15.0664C48.125 15.4609 48.3184 15.9902 48.3184 16.6543H44.6094ZM44.6094 16.3145H47.0938C47.0742 15.9707 47.0332 15.7285 46.9707 15.5879C46.873 15.3691 46.7266 15.1973 46.5312 15.0723C46.3398 14.9473 46.1387 14.8848 45.9277 14.8848C45.6035 14.8848 45.3125 15.0117 45.0547 15.2656C44.8008 15.5156 44.6523 15.8652 44.6094 16.3145ZM50.6094 14.4746V15.6816C51.0586 14.877 51.5195 14.4746 51.9922 14.4746C52.207 14.4746 52.3848 14.541 52.5254 14.6738C52.666 14.8027 52.7363 14.9531 52.7363 15.125C52.7363 15.2773 52.6855 15.4062 52.584 15.5117C52.4824 15.6172 52.3613 15.6699 52.2207 15.6699C52.084 15.6699 51.9297 15.6035 51.7578 15.4707C51.5898 15.334 51.4648 15.2656 51.3828 15.2656C51.3125 15.2656 51.2363 15.3047 51.1543 15.3828C50.9785 15.543 50.7969 15.8066 50.6094 16.1738V18.7461C50.6094 19.043 50.6465 19.2676 50.7207 19.4199C50.7715 19.5254 50.8613 19.6133 50.9902 19.6836C51.1191 19.7539 51.3047 19.7891 51.5469 19.7891V20H48.7988V19.7891C49.0723 19.7891 49.2754 19.7461 49.4082 19.6602C49.5059 19.5977 49.5742 19.498 49.6133 19.3613C49.6328 19.2949 49.6426 19.1055 49.6426 18.793V16.7129C49.6426 16.0879 49.6289 15.7168 49.6016 15.5996C49.5781 15.4785 49.5312 15.3906 49.4609 15.3359C49.3945 15.2812 49.3105 15.2539 49.209 15.2539C49.0879 15.2539 48.9512 15.2832 48.7988 15.3418L48.7402 15.1309L50.3633 14.4746H50.6094ZM53.9375 16.6543C53.9336 17.4512 54.127 18.0762 54.5176 18.5293C54.9082 18.9824 55.3672 19.209 55.8945 19.209C56.2461 19.209 56.5508 19.1133 56.8086 18.9219C57.0703 18.7266 57.2891 18.3945 57.4648 17.9258L57.6465 18.043C57.5645 18.5781 57.3262 19.0664 56.9316 19.5078C56.5371 19.9453 56.043 20.1641 55.4492 20.1641C54.8047 20.1641 54.252 19.9141 53.791 19.4141C53.334 18.9102 53.1055 18.2344 53.1055 17.3867C53.1055 16.4688 53.3398 15.7539 53.8086 15.2422C54.2812 14.7266 54.873 14.4688 55.584 14.4688C56.1855 14.4688 56.6797 14.668 57.0664 15.0664C57.4531 15.4609 57.6465 15.9902 57.6465 16.6543H53.9375ZM53.9375 16.3145H56.4219C56.4023 15.9707 56.3613 15.7285 56.2988 15.5879C56.2012 15.3691 56.0547 15.1973 55.8594 15.0723C55.668 14.9473 55.4668 14.8848 55.2559 14.8848C54.9316 14.8848 54.6406 15.0117 54.3828 15.2656C54.1289 15.5156 53.9805 15.8652 53.9375 16.3145ZM59.9316 15.6113C60.5605 14.8535 61.1602 14.4746 61.7305 14.4746C62.0234 14.4746 62.2754 14.5488 62.4863 14.6973C62.6973 14.8418 62.8652 15.082 62.9902 15.418C63.0762 15.6523 63.1191 16.0117 63.1191 16.4961V18.7871C63.1191 19.127 63.1465 19.3574 63.2012 19.4785C63.2441 19.5762 63.3125 19.6523 63.4062 19.707C63.5039 19.7617 63.6816 19.7891 63.9395 19.7891V20H61.2852V19.7891H61.3965C61.6465 19.7891 61.8203 19.752 61.918 19.6777C62.0195 19.5996 62.0898 19.4863 62.1289 19.3379C62.1445 19.2793 62.1523 19.0957 62.1523 18.7871V16.5898C62.1523 16.1016 62.0879 15.748 61.959 15.5293C61.834 15.3066 61.6211 15.1953 61.3203 15.1953C60.8555 15.1953 60.3926 15.4492 59.9316 15.957V18.7871C59.9316 19.1504 59.9531 19.375 59.9961 19.4609C60.0508 19.5742 60.125 19.6582 60.2188 19.7129C60.3164 19.7637 60.5117 19.7891 60.8047 19.7891V20H58.1504V19.7891H58.2676C58.541 19.7891 58.7246 19.7207 58.8184 19.584C58.916 19.4434 58.9648 19.1777 58.9648 18.7871V16.7949C58.9648 16.1504 58.9492 15.7578 58.918 15.6172C58.8906 15.4766 58.8457 15.3809 58.7832 15.3301C58.7246 15.2793 58.6445 15.2539 58.543 15.2539C58.4336 15.2539 58.3027 15.2832 58.1504 15.3418L58.0625 15.1309L59.6797 14.4746H59.9316V15.6113ZM68.9258 17.9609C68.7812 18.668 68.498 19.2129 68.0762 19.5957C67.6543 19.9746 67.1875 20.1641 66.6758 20.1641C66.0664 20.1641 65.5352 19.9082 65.082 19.3965C64.6289 18.8848 64.4023 18.1934 64.4023 17.3223C64.4023 16.4785 64.6523 15.793 65.1523 15.2656C65.6562 14.7383 66.2598 14.4746 66.9629 14.4746C67.4902 14.4746 67.9238 14.6152 68.2637 14.8965C68.6035 15.1738 68.7734 15.4629 68.7734 15.7637C68.7734 15.9121 68.7246 16.0332 68.627 16.127C68.5332 16.2168 68.4004 16.2617 68.2285 16.2617C67.998 16.2617 67.8242 16.1875 67.707 16.0391C67.6406 15.957 67.5957 15.8008 67.5723 15.5703C67.5527 15.3398 67.4746 15.1641 67.3379 15.043C67.2012 14.9258 67.0117 14.8672 66.7695 14.8672C66.3789 14.8672 66.0645 15.0117 65.8262 15.3008C65.5098 15.6836 65.3516 16.1895 65.3516 16.8184C65.3516 17.459 65.5078 18.0254 65.8203 18.5176C66.1367 19.0059 66.5625 19.25 67.0977 19.25C67.4805 19.25 67.8242 19.1191 68.1289 18.8574C68.3438 18.6777 68.5527 18.3516 68.7559 17.8789L68.9258 17.9609ZM71.0645 11.668C71.2285 11.668 71.3672 11.7266 71.4805 11.8438C71.5977 11.957 71.6562 12.0957 71.6562 12.2598C71.6562 12.4238 71.5977 12.5645 71.4805 12.6816C71.3672 12.7988 71.2285 12.8574 71.0645 12.8574C70.9004 12.8574 70.7598 12.7988 70.6426 12.6816C70.5254 12.5645 70.4668 12.4238 70.4668 12.2598C70.4668 12.0957 70.5234 11.957 70.6367 11.8438C70.7539 11.7266 70.8965 11.668 71.0645 11.668ZM71.5508 14.4746V18.7871C71.5508 19.123 71.5742 19.3477 71.6211 19.4609C71.6719 19.5703 71.7441 19.6523 71.8379 19.707C71.9355 19.7617 72.1113 19.7891 72.3652 19.7891V20H69.7578V19.7891C70.0195 19.7891 70.1953 19.7637 70.2852 19.7129C70.375 19.6621 70.4453 19.5781 70.4961 19.4609C70.5508 19.3438 70.5781 19.1191 70.5781 18.7871V16.7188C70.5781 16.1367 70.5605 15.7598 70.5254 15.5879C70.498 15.4629 70.4551 15.377 70.3965 15.3301C70.3379 15.2793 70.2578 15.2539 70.1562 15.2539C70.0469 15.2539 69.9141 15.2832 69.7578 15.3418L69.6758 15.1309L71.293 14.4746H71.5508ZM76.0801 19.2266C75.5293 19.6523 75.1836 19.8984 75.043 19.9648C74.832 20.0625 74.6074 20.1113 74.3691 20.1113C73.998 20.1113 73.6914 19.9844 73.4492 19.7305C73.2109 19.4766 73.0918 19.1426 73.0918 18.7285C73.0918 18.4668 73.1504 18.2402 73.2676 18.0488C73.4277 17.7832 73.7051 17.5332 74.0996 17.2988C74.498 17.0645 75.1582 16.7793 76.0801 16.4434V16.2324C76.0801 15.6973 75.9941 15.3301 75.8223 15.1309C75.6543 14.9316 75.4082 14.832 75.084 14.832C74.8379 14.832 74.6426 14.8984 74.498 15.0312C74.3496 15.1641 74.2754 15.3164 74.2754 15.4883L74.2871 15.8281C74.2871 16.0078 74.2402 16.1465 74.1465 16.2441C74.0566 16.3418 73.9375 16.3906 73.7891 16.3906C73.6445 16.3906 73.5254 16.3398 73.4316 16.2383C73.3418 16.1367 73.2969 15.998 73.2969 15.8223C73.2969 15.4863 73.4688 15.1777 73.8125 14.8965C74.1562 14.6152 74.6387 14.4746 75.2598 14.4746C75.7363 14.4746 76.127 14.5547 76.4316 14.7148C76.6621 14.8359 76.832 15.0254 76.9414 15.2832C77.0117 15.4512 77.0469 15.7949 77.0469 16.3145V18.1367C77.0469 18.6484 77.0566 18.9629 77.0762 19.0801C77.0957 19.1934 77.127 19.2695 77.1699 19.3086C77.2168 19.3477 77.2695 19.3672 77.3281 19.3672C77.3906 19.3672 77.4453 19.3535 77.4922 19.3262C77.5742 19.2754 77.7324 19.1328 77.9668 18.8984V19.2266C77.5293 19.8125 77.1113 20.1055 76.7129 20.1055C76.5215 20.1055 76.3691 20.0391 76.2559 19.9062C76.1426 19.7734 76.084 19.5469 76.0801 19.2266ZM76.0801 18.8457V16.8008C75.4902 17.0352 75.1094 17.2012 74.9375 17.2988C74.6289 17.4707 74.4082 17.6504 74.2754 17.8379C74.1426 18.0254 74.0762 18.2305 74.0762 18.4531C74.0762 18.7344 74.1602 18.9688 74.3281 19.1562C74.4961 19.3398 74.6895 19.4316 74.9082 19.4316C75.2051 19.4316 75.5957 19.2363 76.0801 18.8457ZM81.8398 14.4746V16.3027H81.6465C81.498 15.7285 81.3066 15.3379 81.0723 15.1309C80.8418 14.9238 80.5469 14.8203 80.1875 14.8203C79.9141 14.8203 79.6934 14.8926 79.5254 15.0371C79.3574 15.1816 79.2734 15.3418 79.2734 15.5176C79.2734 15.7363 79.3359 15.9238 79.4609 16.0801C79.582 16.2402 79.8281 16.4102 80.1992 16.5898L81.0547 17.0059C81.8477 17.3926 82.2441 17.9023 82.2441 18.5352C82.2441 19.0234 82.0586 19.418 81.6875 19.7188C81.3203 20.0156 80.9082 20.1641 80.4512 20.1641C80.123 20.1641 79.748 20.1055 79.3262 19.9883C79.1973 19.9492 79.0918 19.9297 79.0098 19.9297C78.9199 19.9297 78.8496 19.9805 78.7988 20.082H78.6055V18.166H78.7988C78.9082 18.7129 79.1172 19.125 79.4258 19.4023C79.7344 19.6797 80.0801 19.8184 80.4629 19.8184C80.7324 19.8184 80.9512 19.7402 81.1191 19.584C81.291 19.4238 81.377 19.2324 81.377 19.0098C81.377 18.7402 81.2812 18.5137 81.0898 18.3301C80.9023 18.1465 80.5254 17.9141 79.959 17.6328C79.3926 17.3516 79.0215 17.0977 78.8457 16.8711C78.6699 16.6484 78.582 16.3672 78.582 16.0273C78.582 15.5859 78.7324 15.2168 79.0332 14.9199C79.3379 14.623 79.7305 14.4746 80.2109 14.4746C80.4219 14.4746 80.6777 14.5195 80.9785 14.6094C81.1777 14.668 81.3105 14.6973 81.377 14.6973C81.4395 14.6973 81.4883 14.6836 81.5234 14.6562C81.5586 14.6289 81.5996 14.5684 81.6465 14.4746H81.8398Z" fill="black"/>
</svg>
